<svg xmlns="http://www.w3.org/2000/svg" xmlns:xlink="http://www.w3.org/1999/xlink" viewBox="0,0,256,256" width="64px" height="64px"><g fill="none" fill-rule="nonzero" stroke="none" stroke-width="none" stroke-linecap="butt" stroke-linejoin="none" stroke-miterlimit="10" stroke-dasharray="" stroke-dashoffset="0" font-family="none" font-weight="none" font-size="none" text-anchor="none" style="mix-blend-mode: normal"><path transform="translate(1.85399,15.23399) scale(16,16)" d="M14.896,4.962c0.008,0.142 0.013,0.288 0.013,0.434c0,4.989 -3.427,9.604 -9.689,9.604c-3.335,0 -5.22,-1.663 -5.22,-1.663l0.522,-0.622c0,0 3.107,0.155 4.401,-0.984c-1.149,-0.55 -4.179,-2.852 -4.179,-6.693c0,-1.427 0.457,-2.766 0.457,-2.766l0.717,-0.328c1.678,2.042 3.427,3.692 6.256,3.832c-0.057,-0.249 -0.088,-0.506 -0.088,-0.769c0,-1.863 1.525,-3.374 3.405,-3.374c0.98,0 1.864,0.407 2.483,1.064c0.643,-0.067 1.752,-0.814 1.752,-0.814l0.274,0.222c0,1.109 -0.347,2 -1.104,2.857z" id="strokeMainSVG" fill="#ffffff" stroke="#ffffff" stroke-width="2" stroke-linejoin="round"></path><g transform="translate(1.85399,15.23399) scale(16,16)" fill="#0374f4" stroke="none" stroke-width="1" stroke-linejoin="miter"><path d="M16,2.105l-0.274,-0.222c0,0 -1.109,0.747 -1.752,0.814c-0.619,-0.657 -1.503,-1.064 -2.483,-1.064c-1.88,0 -3.405,1.511 -3.405,3.374c0,0.263 0.031,0.52 0.088,0.769c-2.829,-0.14 -4.578,-1.79 -6.256,-3.832l-0.717,0.328c0,0 -0.457,1.339 -0.457,2.766c0,3.841 3.03,6.143 4.179,6.693c-1.294,1.139 -4.401,0.984 -4.401,0.984l-0.522,0.622c0,0 1.885,1.663 5.22,1.663c6.262,0 9.689,-4.615 9.689,-9.604c0,-0.146 -0.005,-0.292 -0.013,-0.434c0.757,-0.857 1.104,-1.748 1.104,-2.857z"></path></g></g></svg>